<?xml version="1.0" encoding="utf-8"?>
<!-- Generator: Adobe Illustrator 16.0.0, SVG Export Plug-In . SVG Version: 6.00 Build 0)  -->
<!DOCTYPE svg PUBLIC "-//W3C//DTD SVG 1.1//EN" "http://www.w3.org/Graphics/SVG/1.1/DTD/svg11.dtd">
<svg version="1.1" id="Calque_1" xmlns="http://www.w3.org/2000/svg" xmlns:xlink="http://www.w3.org/1999/xlink" x="0px" y="0px"
	 width="57px" height="57px" viewBox="0 0 57 57" enable-background="new 0 0 57 57" xml:space="preserve">
<circle fill="#F07F28" cx="28.5" cy="28.5" r="28.409"/>
<g id="WATER">
	<g>
		<rect x="27.884" y="40.967" fill="#FFFFFF" width="1.231" height="4.936"/>
	</g>
	<g>
		
			<rect x="20.389" y="38.951" transform="matrix(-0.8652 -0.5015 0.5015 -0.8652 18.4058 87.7859)" fill="#FFFFFF" width="1.233" height="4.936"/>
	</g>
	<g>
		
			<rect x="13.108" y="20.403" transform="matrix(-0.8655 -0.5008 0.5008 -0.8655 18.5289 47.0126)" fill="#FFFFFF" width="4.935" height="1.232"/>
	</g>
	<g>
		
			<rect x="18.575" y="14.945" transform="matrix(-0.4993 -0.8664 0.8664 -0.4993 18.0665 41.5614)" fill="#FFFFFF" width="4.935" height="1.232"/>
	</g>
	<g>
		
			<rect x="33.492" y="40.826" transform="matrix(-0.4993 -0.8664 0.8664 -0.4993 18.0084 93.2885)" fill="#FFFFFF" width="4.935" height="1.231"/>
	</g>
	<g>
		<rect x="11.099" y="27.885" fill="#FFFFFF" width="4.935" height="1.232"/>
	</g>
	<g>
		
			<rect x="14.803" y="33.416" transform="matrix(-0.4978 -0.8673 0.8673 -0.4978 -8.0267 67.121)" fill="#FFFFFF" width="1.232" height="4.937"/>
	</g>
	<path fill="#FFFFFF" d="M28.499,7.279c-11.7,0-21.22,9.521-21.22,21.222s9.52,21.22,21.22,21.22
		c11.702,0,21.222-9.519,21.222-21.22S40.201,7.279,28.499,7.279z M37.725,13.732l-2.464,4.276l-1.067-0.615l2.465-4.276
		L37.725,13.732z M43.267,19.275l0.615,1.066l-4.274,2.466l-0.615-1.067L43.267,19.275z M40.966,27.885H45.9v1.232h-4.935V27.885z
		 M28.499,46.765c-10.07,0-18.264-8.193-18.264-18.264c0-9.864,7.862-17.922,17.648-18.249v18.249c0,0.216,0.113,0.416,0.297,0.527
		l15.616,9.431C40.534,43.454,34.899,46.765,28.499,46.765z"/>
</g>
<g>
</g>
<g>
</g>
<g>
</g>
<g>
</g>
<g>
</g>
<g>
</g>
</svg>
