<?xml version="1.0" encoding="utf-8"?>
<!-- Generator: Adobe Illustrator 16.0.0, SVG Export Plug-In . SVG Version: 6.00 Build 0)  -->
<!DOCTYPE svg PUBLIC "-//W3C//DTD SVG 1.1//EN" "http://www.w3.org/Graphics/SVG/1.1/DTD/svg11.dtd">
<svg version="1.1" id="Calque_1" xmlns="http://www.w3.org/2000/svg" xmlns:xlink="http://www.w3.org/1999/xlink" x="0px" y="0px"
	 width="57px" height="57px" viewBox="0 0 57 57" enable-background="new 0 0 57 57" xml:space="preserve">
<circle fill="#F07F28" cx="28.5" cy="28.5" r="28.409"/>
<g id="Your_Icon_copy_19">
	<g>
		<polygon fill="#FFFFFF" points="31.237,26.902 15.892,42.248 14.805,44.05 15.316,44.562 17.119,43.475 32.464,28.128 		"/>
	</g>
	<g>
		<path fill="#FFFFFF" d="M46.126,13.239c-1.166-1.166-2.992-1.237-4.158-0.071l-8.971,8.972c-0.104,0.104-0.104,0.27,0,0.374
			c0.303,0.305,0.303,0.798,0,1.103c-0.305,0.304-0.799,0.305-1.104,0c-0.104-0.104-0.27-0.104-0.375,0l-1.033,1.034
			c-0.086,0.086-0.096,0.215-0.037,0.316l3.951,3.954c0.102,0.058,0.232,0.047,0.316-0.039l1.033-1.033
			c0.104-0.104,0.104-0.271,0-0.374c-0.305-0.305-0.305-0.799,0-1.104c0.303-0.305,0.799-0.303,1.104,0
			c0.102,0.104,0.27,0.104,0.373,0l8.973-8.97C47.366,16.232,47.294,14.406,46.126,13.239z"/>
	</g>
	<path fill="#FFFFFF" d="M42.136,39.787l-10.514-9.767l-3.678,3.679l10.092,10.099c1.113,1.158,2.896,1.158,4.055,0.045
		C43.206,42.684,43.249,40.901,42.136,39.787z M41.11,42.861c-0.578,0.624-1.516,0.535-2.139-0.046
		c-0.535-0.533-0.535-1.513,0-2.092c0.623-0.581,1.561-0.581,2.139,0C41.69,41.303,41.69,42.327,41.11,42.861z"/>
	<path fill="#FFFFFF" d="M25.671,31.422l3.593-3.593l-6.955-6.46c-1.024-1.113-1.293-1.559-1.024-2.852
		c0.312-1.427,0.062-4.044-2.363-5.439c-2.788-1.604-5.616-0.133-5.616-0.133l-0.223,0.357c0,0,2.497,1.649,2.808,1.828
		c0.356,0.224,1.426,1.426,0.133,3.343c-1.249,1.917-2.629,1.292-3.03,0.981c-0.312-0.179-2.808-1.784-2.808-1.784l-0.222,0.356
		c0,0-0.179,3.343,2.583,5.126c1.292,0.846,2.676,0.846,3.656,0.49c0.98-0.312,1.692,0.045,2.897,1.204L25.671,31.422z"/>
</g>
<g>
</g>
<g>
</g>
<g>
</g>
<g>
</g>
<g>
</g>
<g>
</g>
</svg>
