<?xml version="1.0" encoding="utf-8"?>
<!-- Generator: Adobe Illustrator 16.0.0, SVG Export Plug-In . SVG Version: 6.00 Build 0)  -->
<!DOCTYPE svg PUBLIC "-//W3C//DTD SVG 1.1//EN" "http://www.w3.org/Graphics/SVG/1.1/DTD/svg11.dtd">
<svg version="1.1" id="Calque_1" xmlns="http://www.w3.org/2000/svg" xmlns:xlink="http://www.w3.org/1999/xlink" x="0px" y="0px"
	 width="263.333px" height="57px" viewBox="0 0 263.333 57" enable-background="new 0 0 263.333 57" xml:space="preserve">
<g>
	<text transform="matrix(1 0 0 1 106.3203 22.7236)"><tspan x="0" y="0" fill="#FCFDF9" font-family="'BigCaslon-Medium'" font-size="22.4103" letter-spacing="1">AJACCIO </tspan><tspan x="-106.404" y="21.392" fill="#FCFDF9" font-family="'BigCaslon-Medium'" font-size="22.4103" letter-spacing="1">MARINE CENTER</tspan></text>
	
		<text transform="matrix(1 0 0 1 7.1953 54.8232)" fill="#FCFDF9" font-family="'HelveticaNeue-Light'" font-size="8.1492" letter-spacing="1">YACHT SALES, MANAGEMENT &amp; SERVICES</text>
</g>
<g>
	<path fill="#FCFDF9" d="M239.756,4.396c0,0-8.763,22.089-7.513,47.13c0,0,11.001,0.808,12.878-0.804
		C245.121,50.722,240.382,39.72,239.756,4.396z"/>
	<path fill="#FCFDF9" d="M263.098,52.911v2.214l-17.572-1.106l1.809-1.979C247.334,52.04,263.098,51.636,263.098,52.911z"/>
	<path fill="#FCFDF9" d="M232.647,55.125c0,0,10.73,1.544,17.236,1.61v-3.185l-17.236-0.64V55.125z"/>
	<path fill="#FCFDF9" d="M249.884,49.396"/>
	<rect x="238.81" y="51.456" fill="#FCFDF9" width="1.048" height="1.829"/>
	<rect x="250.461" y="48.719" fill="#FCFDF9" width="0.966" height="3.657"/>
	<polygon fill="#FCFDF9" points="244.248,53.851 248.207,52.376 248.9,53.111 245.525,54.824 	"/>
	<path fill="#FCFDF9" d="M245.747-0.074c0,0-4.649,24.466-3.755,49.838c0,0,4.568,0.801,10.335-1.045
		C252.327,48.719,249.145,8.779,245.747-0.074z"/>
</g>
</svg>
